{
  "accessors": [
    {
      "bufferView": 1,
      "componentType": 5126,
      "count": 1122,
      "max": [
        0.99564993381500244,
        0.68393826484680176,
        0.059000015258789062
      ],
      "min": [
        -1.0938355922698975,
        -0.78149855136871338,
        -1.0837061026336414e-08
      ],
      "type": "VEC3"
    },
    {
      "bufferView": 1,
      "byteOffset": 13464,
      "componentType": 5126,
      "count": 1122,
      "max": [
        0.99858736991882324,
        0.99972248077392578,
        1
      ],
      "min": [
        -0.99740064144134521,
        -0.999397873878479,
        -1
      ],
      "type": "VEC3"
    },
    {
      "bufferView": 0,
      "componentType": 5125,
      "count": 6720,
      "max": [
        1121
      ],
      "min": [
        0
      ],
      "type": "SCALAR"
    }
  ],
  "asset": {
    "extras": {
      "author": "J_Double_D (https://sketchfab.com/jonahd1030)",
      "license": "CC-BY-4.0 (http://creativecommons.org/licenses/by/4.0/)",
      "source": "https://sketchfab.com/models/e3e81cbc72354ec6a11e5b7c6eba3ad0",
      "title": "Ink Puddle"
    },
    "generator": "Sketchfab-3.29.3",
    "version": "2.0"
  },
  "bufferViews": [
    {
      "buffer": 0,
      "byteLength": 26880,
      "byteOffset": 0,
      "name": "floatBufferViews",
      "target": 34963
    },
    {
      "buffer": 0,
      "byteLength": 26928,
      "byteOffset": 26880,
      "byteStride": 12,
      "name": "floatBufferViews",
      "target": 34962
    }
  ],
  "buffers": [
    {
      "byteLength": 53808,
      "uri": "scene.bin"
    }
  ],
  "materials": [
    {
      "doubleSided": true,
      "emissiveFactor": [
        0,
        0,
        0
      ],
      "name": "Ink_puddle",
      "pbrMetallicRoughness": {
        "baseColorFactor": [
          0,
          0,
          0,
          1
        ],
        "metallicFactor": 0,
        "roughnessFactor": 0
      }
    }
  ],
  "meshes": [
    {
      "name": "Plane.001_Ink puddle_0",
      "primitives": [
        {
          "attributes": {
            "NORMAL": 1,
            "POSITION": 0
          },
          "indices": 2,
          "material": 0,
          "mode": 4
        }
      ]
    }
  ],
  "nodes": [
    {
      "children": [
        1
      ],
      "name": "RootNode (gltf orientation matrix)",
      "rotation": [
        -0.70710678118654746,
        -0,
        -0,
        0.70710678118654757
      ]
    },
    {
      "children": [
        2
      ],
      "name": "RootNode (model correction matrix)"
    },
    {
      "children": [
        3
      ],
      "matrix": [
        1,
        0,
        0,
        0,
        0,
        0,
        1,
        0,
        0,
        -1,
        0,
        0,
        0,
        0,
        0,
        1
      ],
      "name": "4de8b90c7b3c4d2aae70eac22b34beb7.fbx"
    },
    {
      "children": [
        4,
        6,
        8,
        11,
        14,
        17
      ],
      "name": "RootNode"
    },
    {
      "children": [
        5
      ],
      "matrix": [
        11.671303002787907,
        -13.951937646208364,
        -98.331712321165199,
        0,
        1.6441844588950509,
        99.021934264812955,
        -13.854717316502347,
        0,
        99.302965057186029,
        0.00027130603872689021,
        11.786545577761467,
        0,
        -304.93609619140625,
        1239.0986328125,
        1994.7943115234375,
        1
      ],
      "name": "Camera"
    },
    {
      "name": ""
    },
    {
      "children": [
        7
      ],
      "matrix": [
        78.699111938476562,
        0,
        0,
        0,
        0,
        -1.2821712784550392e-05,
        -78.699111938475525,
        0,
        0,
        78.699111938475525,
        -1.2821712784550392e-05,
        0,
        0,
        -15.207374572753906,
        0,
        1
      ],
      "name": "Plane.001"
    },
    {
      "mesh": 0,
      "name": "Plane.001_Ink puddle_0"
    },
    {
      "children": [
        9
      ],
      "matrix": [
        100,
        0,
        0,
        0,
        0,
        -1.6292067939183141e-05,
        99.999999999998678,
        0,
        0,
        -99.999999999998678,
        -1.6292067939183141e-05,
        0,
        0,
        949.86541748046875,
        -612.384765625,
        1
      ],
      "name": "Sun"
    },
    {
      "children": [
        10
      ],
      "matrix": [
        1,
        0,
        0,
        0,
        0,
        2.2204460492503131e-16,
        1,
        0,
        0,
        -1,
        2.2204460492503131e-16,
        0,
        0,
        0,
        0,
        1
      ],
      "name": ""
    },
    {
      "name": ""
    },
    {
      "children": [
        12
      ],
      "matrix": [
        7.5497899487686482e-06,
        5.5511151231257827e-15,
        -99.99999999999973,
        0,
        -99.999999999994799,
        3.1391647858924898e-05,
        -7.5497899598708784e-06,
        0,
        3.1391647864476013e-05,
        99.999999999995083,
        2.3647750424515834e-12,
        0,
        0,
        949.86541748046875,
        -612.384765625,
        1
      ],
      "name": "Sun.002"
    },
    {
      "children": [
        13
      ],
      "matrix": [
        1,
        0,
        0,
        0,
        0,
        2.2204460492503131e-16,
        1,
        0,
        0,
        -1,
        2.2204460492503131e-16,
        0,
        0,
        0,
        0,
        1
      ],
      "name": ""
    },
    {
      "name": ""
    },
    {
      "children": [
        15
      ],
      "matrix": [
        4.3711389841050163e-06,
        0,
        99.999999999999929,
        0,
        99.999999999998025,
        1.9470718859437852e-05,
        -4.3711390007583617e-06,
        0,
        -1.9470718870540082e-05,
        99.99999999999811,
        8.4376949871511897e-13,
        0,
        0,
        949.86541748046875,
        -612.384765625,
        1
      ],
      "name": "Sun.003"
    },
    {
      "children": [
        16
      ],
      "matrix": [
        1,
        0,
        0,
        0,
        0,
        2.2204460492503131e-16,
        1,
        0,
        0,
        -1,
        2.2204460492503131e-16,
        0,
        0,
        0,
        0,
        1
      ],
      "name": ""
    },
    {
      "name": ""
    },
    {
      "children": [
        18
      ],
      "matrix": [
        100,
        4.4408926278962182e-14,
        8.1171666689128896e-21,
        0,
        -4.4408926278962712e-14,
        99.999999999996021,
        2.8212997449372409e-05,
        0,
        4.4119225694647064e-21,
        -2.8212997449372409e-05,
        99.999999999996021,
        0,
        0,
        949.86541748046875,
        -612.384765625,
        1
      ],
      "name": "Sun.004"
    },
    {
      "children": [
        19
      ],
      "matrix": [
        1,
        0,
        0,
        0,
        0,
        2.2204460492503131e-16,
        1,
        0,
        0,
        -1,
        2.2204460492503131e-16,
        0,
        0,
        0,
        0,
        1
      ],
      "name": ""
    },
    {
      "name": ""
    }
  ],
  "scene": 0,
  "scenes": [
    {
      "name": "OSG_Scene",
      "nodes": [
        0
      ]
    }
  ]
}

